<?xml version="1.0" encoding="UTF-8" standalone="no"?>
<svg
   id="Calque_2"
   data-name="Calque 2"
   viewBox="0 0 799.53 209.66"
   version="1.1"
   sodipodi:docname="blueTypoLogo.svg"
   inkscape:version="1.3.2 (091e20ef0f, 2023-11-25, custom)"
   xmlns:inkscape="http://www.inkscape.org/namespaces/inkscape"
   xmlns:sodipodi="http://sodipodi.sourceforge.net/DTD/sodipodi-0.dtd"
   xmlns="http://www.w3.org/2000/svg"
   xmlns:svg="http://www.w3.org/2000/svg">
  <sodipodi:namedview
     id="namedview11"
     pagecolor="#ffffff"
     bordercolor="#000000"
     borderopacity="0.25"
     inkscape:showpageshadow="2"
     inkscape:pageopacity="0.0"
     inkscape:pagecheckerboard="0"
     inkscape:deskcolor="#d1d1d1"
     inkscape:zoom="0.81365079"
     inkscape:cx="439.9922"
     inkscape:cy="-158.54468"
     inkscape:window-width="1920"
     inkscape:window-height="1056"
     inkscape:window-x="0"
     inkscape:window-y="0"
     inkscape:window-maximized="1"
     inkscape:current-layer="Calque_2" />
  <defs
     id="defs1">
    <style
       id="style1">
      .cls-1 {
        fill: #021859;
      }

      .cls-1, .cls-2 {
        stroke-width: 0px;
      }

      .cls-2 {
        fill: #25e19d;
      }
    </style>
  </defs>
  <path
     class="cls-1"
     d="M219.07,201.29l-4.56,4.57c-5.07,5.07-13.29,5.07-18.35,0l-26.69-26.69c-3.06-3.06-4.27-7.25-3.64-11.22l-6.91-6.91,1.78-1.78c-1.8,1.52-3.65,2.96-5.56,4.33-14.77,10.58-32.88,16.8-52.43,16.8-49.81,0-90.19-40.38-90.19-90.19S52.9,0,102.71,0s90.19,40.39,90.19,90.2c0,22.08-7.93,42.3-21.12,57.98l2.47-2.47,6.9,6.9c3.96-.63,8.17.58,11.23,3.64l26.69,26.7c5.07,5.06,5.07,13.28,0,18.34Z"
     id="path1" />
  <g
     id="g10">
    <path
       class="cls-2"
       d="M242.45,119.31c-7.5,0-13.02-1.77-16.57-5.33-3.55-3.55-5.33-9.07-5.33-16.57v-23c0-7.57,1.77-13.11,5.33-16.62,3.55-3.52,9.06-5.24,16.52-5.18h12.05c7.5,0,13.02,1.77,16.55,5.3,3.53,3.53,5.3,9.07,5.3,16.6v22.9c0,7.5-1.77,13.02-5.3,16.57-3.53,3.55-9.05,5.33-16.55,5.33h-12ZM242.45,111.96h12c3.63,0,6.51-.45,8.62-1.35,2.12-.9,3.62-2.41,4.52-4.52.9-2.12,1.35-5.01,1.35-8.67v-22.9c0-3.63-.45-6.51-1.35-8.62-.9-2.12-2.41-3.63-4.52-4.55-2.12-.92-4.99-1.38-8.62-1.38h-12.05c-3.63-.03-6.5.39-8.6,1.27-2.1.88-3.61,2.38-4.52,4.5-.92,2.12-1.38,5.01-1.38,8.68v23c0,3.67.45,6.56,1.35,8.67.9,2.12,2.41,3.62,4.52,4.52,2.12.9,5.01,1.35,8.67,1.35ZM275.75,120.91c.63.67.94,1.4.92,2.2-.02.8-.41,1.55-1.17,2.25-1.47,1.4-2.97,1.37-4.5-.1l-15.95-16.75c-.67-.7-1-1.44-1-2.22s.37-1.51,1.1-2.18c1.5-1.43,3.02-1.42,4.55.05l16.05,16.75Z"
       id="path2"
       style="fill:#021859;fill-opacity:1" />
    <path
       class="cls-2"
       d="M316.15,119.31c-7.5,0-13.03-1.77-16.58-5.33-3.55-3.55-5.33-9.07-5.33-16.57v-41.1c0-1.2.32-2.12.95-2.75s1.55-.95,2.75-.95,2.11.32,2.73.95c.62.63.92,1.55.92,2.75v41.1c0,3.67.45,6.56,1.35,8.67.9,2.12,2.41,3.62,4.52,4.52,2.12.9,5.01,1.35,8.68,1.35h12c3.63,0,6.51-.45,8.62-1.35,2.12-.9,3.62-2.41,4.52-4.52.9-2.12,1.35-5.01,1.35-8.67v-41.1c0-1.2.32-2.12.95-2.75.63-.63,1.55-.95,2.75-.95s2.11.32,2.73.95c.62.63.92,1.55.92,2.75v41.1c0,7.5-1.77,13.02-5.3,16.57-3.53,3.55-9.05,5.33-16.55,5.33h-12Z"
       id="path3"
       style="fill:#021859;fill-opacity:1" />
    <path
       class="cls-2"
       d="M373.3,119.31c-1.23,0-2.16-.31-2.78-.92-.62-.62-.93-1.54-.93-2.78v-59.25c0-1.27.31-2.2.93-2.8s1.54-.9,2.78-.9,2.15.3,2.75.9.9,1.53.9,2.8v59.25c0,1.23-.3,2.16-.9,2.78-.6.62-1.52.92-2.75.92Z"
       id="path4"
       style="fill:#021859;fill-opacity:1" />
    <path
       class="cls-1"
       d="M416.95,119.31c-1.2,0-2.12-.31-2.75-.92-.63-.62-.95-1.53-.95-2.72v-55.65h-20c-1.2,0-2.12-.31-2.75-.93-.63-.62-.95-1.52-.95-2.73s.32-2.12.95-2.75,1.55-.95,2.75-.95h47.4c1.2,0,2.11.32,2.72.95.62.63.92,1.55.92,2.75s-.31,2.11-.92,2.73-1.53.93-2.72.93h-20.05v55.65c0,1.13-.32,2.02-.95,2.67-.63.65-1.53.97-2.7.97Z"
       id="path5" />
    <path
       class="cls-1"
       d="M445.1,118.96c-2.33-.93-3.03-2.55-2.1-4.85l24.15-58.6c.83-1.93,2.2-2.9,4.1-2.9h.25c1.9.1,3.2,1.07,3.9,2.9l24.4,58.6c.93,2.3.27,3.92-2,4.85-2.3.9-3.9.23-4.8-2l-5.85-13.95h-31.65l-5.65,13.95c-.93,2.27-2.52,2.93-4.75,2ZM458.4,95.61h25.75l-13.05-31.35-12.7,31.35Z"
       id="path6" />
    <path
       class="cls-1"
       d="M517.5,119.31c-2.47,0-3.7-1.23-3.7-3.7v-59.3c0-2.47,1.23-3.7,3.7-3.7s3.65,1.23,3.65,3.7v55.65h28.6c2.47,0,3.7,1.22,3.7,3.65s-1.23,3.7-3.7,3.7h-32.25Z"
       id="path7" />
    <path
       class="cls-1"
       d="M570.25,119.31c-2.47,0-3.7-1.23-3.7-3.7v-59.3c0-2.47,1.23-3.7,3.7-3.7h36.4c2.47,0,3.7,1.22,3.7,3.65s-1.23,3.7-3.7,3.7h-32.75v22h20.95c2.47,0,3.7,1.22,3.7,3.65s-1.23,3.7-3.7,3.7h-20.95v22.65h32.75c2.47,0,3.7,1.22,3.7,3.65s-1.23,3.7-3.7,3.7h-36.4Z"
       id="path8" />
    <path
       class="cls-1"
       d="M629.15,119.31c-2.47,0-3.7-1.23-3.7-3.7v-59.3c0-2.47,1.23-3.7,3.7-3.7,1.27,0,2.5.73,3.7,2.2l40.9,52.65h-1.8v-51.15c0-2.47,1.23-3.7,3.7-3.7s3.65,1.23,3.65,3.7v59.3c0,2.47-1.22,3.7-3.65,3.7-1.33,0-2.57-.73-3.7-2.2l-40.95-52.65h1.8v51.15c0,2.47-1.22,3.7-3.65,3.7Z"
       id="path9" />
    <path
       class="cls-1"
       d="M719.3,119.31c-1.2,0-2.12-.31-2.75-.92-.63-.62-.95-1.53-.95-2.72v-55.65h-20c-1.2,0-2.12-.31-2.75-.93-.63-.62-.95-1.52-.95-2.73s.32-2.12.95-2.75,1.55-.95,2.75-.95h47.4c1.2,0,2.11.32,2.72.95.62.63.92,1.55.92,2.75s-.31,2.11-.92,2.73-1.53.93-2.72.93h-20.05v55.65c0,1.13-.32,2.02-.95,2.67-.63.65-1.53.97-2.7.97Z"
       id="path10" />
  </g>
  <path
     class="cls-2"
     d="M78.16,139.28c-4.2,0-6.3-2.1-6.3-6.3V43.88c0-4.2,2.1-6.3,6.3-6.3h53.85c4.2,0,6.3,2.1,6.3,6.3s-2.1,6.3-6.3,6.3h-47.55v31.5h29.85c4.2,0,6.3,2.1,6.3,6.3s-2.1,6.3-6.3,6.3h-29.85v32.4h47.55c4.2,0,6.3,2.1,6.3,6.3s-2.1,6.3-6.3,6.3h-53.85Z"
     id="path11" />
</svg>
