<?xml version="1.0" encoding="UTF-8"?>
<svg id="Calque_4" data-name="Calque 4" xmlns="http://www.w3.org/2000/svg" viewBox="0 0 759.17 428.1">
  <defs>
    <style>
      .cls-1 {
        fill: #021859;
      }

      .cls-1, .cls-2 {
        stroke-width: 0px;
      }

      .cls-2 {
        fill: #25e19d;
      }
    </style>
  </defs>
  <path class="cls-1" d="M568.27,414.19l-7.58,7.6c-8.43,8.43-22.09,8.43-30.5,0l-44.36-44.36c-5.09-5.09-7.1-12.05-6.05-18.65l-11.49-11.49,2.96-2.96c-2.99,2.53-6.07,4.92-9.24,7.2-24.55,17.59-54.65,27.93-87.15,27.93-82.8,0-149.92-67.12-149.92-149.92s67.12-149.93,149.92-149.93,149.92,67.14,149.92,149.93c0,36.7-13.18,70.31-35.11,96.38l4.11-4.11,11.47,11.47c6.58-1.05,13.58.96,18.67,6.05l44.36,44.38c8.43,8.41,8.43,22.07,0,30.49Z"/>
  <path class="cls-2" d="M334.04,311.11c-6.98,0-10.47-3.49-10.47-10.47v-148.1c0-6.98,3.49-10.47,10.47-10.47h89.51c6.98,0,10.47,3.49,10.47,10.47s-3.49,10.47-10.47,10.47h-79.04v52.36h49.62c6.98,0,10.47,3.49,10.47,10.47s-3.49,10.47-10.47,10.47h-49.62v53.86h79.04c6.98,0,10.47,3.49,10.47,10.47s-3.49,10.47-10.47,10.47h-89.51Z"/>
</svg>