<?xml version="1.0" encoding="UTF-8"?>
<svg id="Calque_1" data-name="Calque 1" xmlns="http://www.w3.org/2000/svg" viewBox="0 0 577.02 762.97">
  <defs>
    <style>
      .cls-1 {
        fill: #f72585;
        stroke-width: 0px;
      }
    </style>
  </defs>
  <path class="cls-1" d="M117.33,762.97c-6.35,0-8.21-2.73-9.36-4.41-4.65-6.81.85-15.05,7.5-22.93,7.41-8.79,20.11-21.13,37.75-36.67,1.88-1.66,4.08-4.06,6-6.44-7.39,3.02-20.78,9.68-44.72,24.27-3.7,2.26-17.11,7.12-29.5,10.24-20.05,5.05-31.11,4.3-35.86-2.44-6.85-9.71,2.4-23.16,33-48,.65-.52,1.8-1.34,4.37-3.13,3.9-2.73,7.25-5.14,10.13-7.25-6.23,2.31-14.27,5.5-24.63,9.86-2.91,1.23-16.36,5.37-28.72,8.19-22,5.02-31.5,4.28-35.05-2.72-4.31-8.51,1.87-17.83,47.61-45.16.92-.55,2.34-1.25,5.21-2.65,6.66-3.25,11.98-6.02,15.94-8.3-6.45.21-16.87,1.11-33.65,3.58-.3.04-.6.07-.9.08-39.82.8-41.66-9.48-42.25-12.86-1.57-9.07,6.51-17.34,52.5-32.79,3.79-1.27,9.65-2.55,17.07-4.16,16.5-3.59,55.14-11.99,57.15-22.77.27-1.46-.05-7.01-15.45-17.19-15.08-8.41-39.49-24.55-35.68-39.25,3.14-12.1,21.01-13.65,36.23-13.65.25,0,.5.01.74.04.89.09,89.71,8.27,158.97-60.34,68.34-67.71,95.37-184.46,80.33-347.01-.36-3.94,2.53-7.43,6.47-7.79,3.94-.37,7.43,2.53,7.79,6.47,15.47,167.18-13.03,287.86-84.71,358.7-72.51,71.67-162.31,64.98-169.95,64.26-15.47.03-20.49,2.27-21.84,3.12,1.54,4.6,14.78,15.25,28.83,23.06.15.09.31.18.46.28,16.67,10.97,23.83,21.41,21.88,31.92-3.46,18.6-34.23,26.77-68.19,34.15-6.71,1.46-12.51,2.72-15.55,3.74-23.48,7.88-34.28,13.07-39.24,16.09,5.61,1.1,14.82,1.81,23.69,1.66,45.15-6.63,54.32-3.9,56.85,4.28,2.83,9.15-7.34,15.89-31.21,27.55-1.72.84-3.67,1.79-4.15,2.07-20.33,12.15-30.81,19.66-36.21,24.14,12.77-1.74,34.84-8.03,39.46-9.96,17.28-7.28,30.45-12.27,39.15-14.84,6.6-1.95,16.57-4.9,20.5,2.23,4.45,8.05-3.51,15.41-31.36,34.94-1.79,1.25-3.09,2.15-3.57,2.54-20.58,16.7-26.92,24.9-28.87,28.35,9.85.85,38.92-8.1,44.77-11.53,19.99-12.18,35.45-20.58,45.95-24.94,5.8-2.4,17.85-7.41,23.39.11,7.91,10.74-12.82,29.21-13.71,29.99-23.23,20.46-33.66,31.68-38.33,37.65,7.51-2.3,19.3-7.26,30.31-12.94.19-.1.38-.19.58-.27,266.98-109.22,360.16-300.31,391.32-441.38,33.87-153.35,4.02-282.65,3.71-283.94-.91-3.85,1.47-7.71,5.31-8.62,3.84-.92,7.71,1.46,8.62,5.31.31,1.32,30.88,133.33-3.54,289.79-20.24,92.02-58.63,174.47-114.11,245.04-69.22,88.07-165.31,157.69-285.6,206.95-23.73,12.24-36.5,15.68-43.63,15.68Z"/>
</svg>