<?xml version="1.0" encoding="UTF-8"?>
<svg id="Calque_1" data-name="Calque 1" xmlns="http://www.w3.org/2000/svg" viewBox="0 0 774.69 644.76">
  <defs>
    <style>
      .cls-1 {
        fill: #f72585;
        stroke-width: 0px;
      }
    </style>
  </defs>
  <path class="cls-1" d="M528.14,644.76c-117.1,0-217.5-34.4-299.4-102.78C117.01,448.71,60.77,308.15,33.26,206.66,3.54,96.98.04,7.91,0,7.03-.13,3.28,2.79.14,6.54,0c3.68-.14,6.89,2.79,7.02,6.53.03.87,3.51,88.66,32.89,196.91,27.01,99.51,82.08,237.23,191.03,328.16,100.43,83.81,229.92,114.94,384.89,92.52.09-.01.17-.02.26-.03,32.64-3.45,69.96-10.04,82.38-15.47-3.42-1.39-9.78-3.37-21.45-5.63-2.25-.44-5.06-.94-8.18-1.49-36.05-6.44-45.78-9.45-45.54-18.38.21-8.06,9.41-10.62,28.67-13.02,4.05-.51,12.78-.6,24.86-.74,14.2-.16,43.28-.49,58.35-2.54-3.92-1.54-9.71-3.52-18.25-5.98-.92-.26-5.57-1.17-10.06-2.04-9.6-1.87-24.11-4.69-36.1-7.64-18.64-4.58-26.82-7.91-26.09-15.55.73-7.57,10.06-8.6,16.24-9.29,7.72-.85,19.16-1.27,34.95-1.28,20.9-2.73,44.78-7.59,54.93-11.68-4.51-1.59-13.25-3.88-29.98-6.34-5.9-.87-16.59-1.04-26.92-1.21-27.68-.45-38.04-.62-38.97-9.43-.75-7.11,6.9-10.16,16.98-13.4,9.62-3.1,24.46-6.95,45.38-11.78,6.62-1.53,18.42-8.59,22.05-12.85-4.94-1.64-22.98-4.13-85.37,6.64-1.14.19-2.57.51-4.22.87-11.64,2.55-31.13,6.81-40.54-5.01-7-8.79-5.53-23.33,4.47-44.45.18-.37.39-.73.63-1.06,4.76-6.63,8.6-15.37,7.96-18.03-1.5-.66-13.08-3.63-68.21,26.44-.47.26-.98.46-1.5.6-4.22,1.13-104.27,26.83-182.88-38.45-69.49-57.71-98.64-166.77-86.66-324.15.28-3.73,3.55-6.52,7.28-6.25,3.74.28,6.53,3.54,6.25,7.28-11.63,152.75,15.89,257.95,81.8,312.69,69.89,58.04,160.89,38.15,169.98,35.96,62.24-33.85,77.49-30.69,84.18-23.1,8.92,10.11-2.48,28.27-6.82,34.42-10.13,21.6-7.05,28.16-5.86,29.66,4.14,5.21,20.17,1.7,27.02.21,1.88-.41,3.52-.77,4.81-.99,33.1-5.71,58.17-8.51,74.47-8.29,11.72.15,25.44,1.63,27.49,11.81,3.03,15.02-26.93,27.81-33.28,29.28-13.64,3.15-23.83,5.69-31.44,7.74,1.83.04,3.6.06,5.24.09,11.26.18,21.9.36,28.67,1.35,33.57,4.94,45.43,10.07,45.35,19.6-.07,8.66-10.36,14.02-37.96,19.77-16.32,3.4-32.34,5.49-33.01,5.57-.29.04-.58.06-.87.06-7.48,0-13.59.1-18.59.26,11.84,2.75,25.34,5.38,31.75,6.62,6.76,1.32,9.81,1.91,11.22,2.32,27.74,7.99,36.28,13.23,35.15,21.55-1.42,10.44-15.42,12.85-78.86,13.56-10.76.12-20.05.23-23.34.63-1.3.16-2.52.33-3.65.48,7.58,1.66,16.18,3.2,21.23,4.1,3.19.57,6.07,1.08,8.38,1.53,26.28,5.08,35.91,10.29,35.53,19.2-.35,8.24-9.11,14.84-51.58,22.26-21.88,3.82-43.97,6.23-45.89,6.44-33.15,4.79-65.18,7.18-96.05,7.18Z"/>
</svg>